<svg width="181" height="62" viewBox="0 0 181 62" fill="none" xmlns="http://www.w3.org/2000/svg">
<path d="M2.9 7.986C2.9 5.698 4.616 4.086 6.904 4.086C9.192 4.086 10.908 5.698 10.908 7.986C10.908 10.274 9.192 11.886 6.904 11.886C4.616 11.886 2.9 10.274 2.9 7.986ZM12.988 7.986C12.988 4.606 10.388 2.24 6.904 2.24C3.42 2.24 0.82 4.606 0.82 7.986C0.82 11.366 3.42 13.732 6.904 13.732C10.388 13.732 12.988 11.366 12.988 7.986ZM6.098 16.02H3.966V23.404H19.514V21.662H6.098V16.02ZM18.474 7.7V0.602H16.342V17.762H18.474V9.468H21.932V7.7H18.474ZM40.752 14.928H42.91V0.602H40.752V3.358H34.2V5.022H40.752V7.466H34.2V9.13H40.752V14.928ZM37.034 10.716C33.914 11.366 31.132 11.548 27.206 11.548V2.006H25.1V13.316H26.868C31.054 13.316 33.966 13.134 37.294 12.458L37.034 10.716ZM35.214 22.234C31.704 22.234 29.572 21.22 29.572 19.53C29.572 17.814 31.704 16.8 35.214 16.8C38.724 16.8 40.856 17.814 40.856 19.53C40.856 21.22 38.724 22.234 35.214 22.234ZM35.214 15.136C30.43 15.136 27.44 16.722 27.44 19.53C27.44 22.312 30.43 23.924 35.214 23.924C39.998 23.924 42.988 22.312 42.988 19.53C42.988 16.722 39.998 15.136 35.214 15.136ZM53.8519 16.956C51.7459 16.956 50.2119 15.448 50.2119 13.368C50.2119 11.262 51.7459 9.754 53.8519 9.754C55.9839 9.754 57.5179 11.262 57.5179 13.368C57.5179 15.448 55.9839 16.956 53.8519 16.956ZM53.8519 7.986C50.5759 7.986 48.2099 10.222 48.2099 13.368C48.2099 16.54 50.5759 18.724 53.8519 18.724C57.1799 18.724 59.5459 16.54 59.5459 13.368C59.5459 10.222 57.1799 7.986 53.8519 7.986ZM54.8919 0.887999H52.7599V4.346H46.8839V6.062H60.6379V4.346H54.8919V0.887999ZM68.8019 10.196H64.9799V0.627999H62.8479V23.924H64.9799V11.99H68.8019V10.196ZM77.2479 2.812H75.1939V7.258C75.1939 11.262 73.2699 15.448 70.0719 17.32L71.3979 18.932C73.7119 17.502 75.4019 14.85 76.2339 11.756C77.0659 14.59 78.6259 17.06 80.8359 18.412L82.0579 16.748C78.9899 14.876 77.2479 10.924 77.2479 7.18V2.812ZM83.3839 8.974H79.5359V10.742H83.3839V22.78H85.3859V1.122H83.3839V8.974ZM88.1159 0.602V23.924H90.1439V0.602H88.1159ZM100.956 13.68C101.918 13.914 103.036 14.044 104.18 14.044C105.35 14.044 106.468 13.914 107.456 13.68V19.166H100.956V13.68ZM104.18 3.748C107.924 3.748 110.628 5.464 110.628 8.064C110.628 10.664 107.924 12.38 104.18 12.38C100.436 12.38 97.7579 10.664 97.7579 8.064C97.7579 5.464 100.436 3.748 104.18 3.748ZM109.588 19.166V12.848C111.512 11.834 112.656 10.17 112.656 8.064C112.656 4.424 109.146 2.084 104.18 2.084C99.2399 2.084 95.7039 4.424 95.7039 8.064C95.7039 10.17 96.8739 11.86 98.8239 12.874V19.166H93.6239V20.934H114.814V19.166H109.588ZM119.204 22.338C120.14 22.338 120.92 21.61 120.92 20.544C120.92 19.478 120.14 18.698 119.204 18.698C118.268 18.698 117.488 19.478 117.488 20.544C117.488 21.61 118.268 22.338 119.204 22.338ZM14.782 44.3C10.908 43.182 9.218 40.374 9.218 37.488V35.174H5.734V37.488C5.734 40.426 4.018 43.468 0.014 44.716L1.678 47.42C4.486 46.536 6.436 44.716 7.528 42.428C8.594 44.534 10.44 46.172 13.144 46.978L14.782 44.3ZM7.45 51.606H16.654V55.272H7.45V51.606ZM4.07 57.95H20.008V48.928H4.07V57.95ZM16.55 34.29V47.81H20.008V34.29H16.55ZM32.25 36.136H28.792V39.62C28.792 44.066 26.972 48.642 22.942 50.54L24.996 53.322C27.7 51.996 29.494 49.474 30.534 46.432C31.522 49.292 33.212 51.606 35.708 52.88L37.788 50.176C33.94 48.278 32.25 43.936 32.25 39.62V36.136ZM45.666 43.494H42.182V34.29H38.75V58.236H42.182V46.354H45.666V43.494ZM67.3199 41.336C61.9639 40.66 59.3379 37.852 59.3379 35.33V34.628H55.8019V35.33C55.8019 37.878 53.1759 40.66 47.7939 41.336L49.0419 43.962C53.1239 43.416 56.0619 41.674 57.5699 39.334C59.0779 41.674 62.0159 43.416 66.0979 43.962L67.3199 41.336ZM68.3859 47.94V45.21H46.7539V47.94H55.8279V50.254H49.1459V52.932H62.3539V58.262H65.7859V50.254H59.2599V47.94H68.3859ZM91.0279 45.21C85.5679 44.326 82.6299 40.738 82.6299 37.332V35.616H78.9639V37.332C78.9639 40.66 75.9999 44.326 70.5919 45.21L71.9959 48.044C76.1819 47.29 79.2239 45.028 80.7839 42.09C82.3439 45.054 85.4119 47.29 89.6239 48.044L91.0279 45.21ZM82.5259 52.646V47.29H79.0939V52.646H70.0719V55.402H91.7559V52.646H82.5259ZM110.654 34.628V47.134H112.786V34.628H110.654ZM97.7579 48.278V57.612H112.786V48.278H110.68V51.138H99.8639V48.278H97.7579ZM99.8639 52.802H110.68V55.896H99.8639V52.802ZM100.254 35.72C96.7439 35.72 94.1959 37.904 94.1959 41.076C94.1959 44.3 96.7439 46.458 100.254 46.458C103.79 46.458 106.364 44.3 106.364 41.076C106.364 37.904 103.79 35.72 100.254 35.72ZM100.254 37.488C102.62 37.488 104.284 38.97 104.284 41.076C104.284 43.208 102.62 44.69 100.254 44.69C97.9399 44.69 96.2759 43.208 96.2759 41.076C96.2759 38.97 97.9399 37.488 100.254 37.488ZM120.556 36.864H118.424V51.892H120.348C124.066 51.892 127.732 51.632 131.788 50.8L131.554 48.98C127.68 49.76 124.066 50.072 120.556 50.072V36.864ZM133.946 34.602V57.898H136.078V34.602H133.946ZM143.406 38.606H152.116V36.838H141.274V52.152H143.12C147.514 52.152 150.582 51.996 154.144 51.32L153.91 49.552C150.53 50.15 147.54 50.332 143.406 50.332V38.606ZM162.074 43.806H158.226V34.602H156.094V57.976H158.226V45.574H162.074V43.806ZM171.054 45.86C171.99 45.86 172.77 45.106 172.77 44.066C172.77 42.974 171.99 42.22 171.054 42.22C170.118 42.22 169.338 42.974 169.338 44.066C169.338 45.106 170.118 45.86 171.054 45.86ZM171.054 56.338C171.99 56.338 172.77 55.61 172.77 54.544C172.77 53.478 171.99 52.698 171.054 52.698C170.118 52.698 169.338 53.478 169.338 54.544C169.338 55.61 170.118 56.338 171.054 56.338ZM176.651 61.122C179.069 57.222 180.499 53.036 180.499 47.914C180.499 42.818 179.069 38.606 176.651 34.732L175.195 35.408C177.431 39.126 178.523 43.494 178.523 47.914C178.523 52.334 177.431 56.728 175.195 60.42L176.651 61.122Z" fill="#222222"/>
</svg>
